<?xml version='1.0' encoding='utf-8'?>
<svg xmlns="http://www.w3.org/2000/svg" viewBox="0 0 53 27" shape-rendering="crispEdges"><rect x="28" y="0" width="1" height="1" fill="rgb(213,218,229)"/><rect x="29" y="0" width="2" height="1" fill="rgb(211,216,228)"/><rect x="31" y="0" width="1" height="1" fill="rgb(210,215,227)"/><rect x="32" y="0" width="1" height="1" fill="rgb(211,216,228)"/><rect x="33" y="0" width="1" height="1" fill="rgb(214,219,230)"/><rect x="28" y="1" width="1" height="1" fill="rgb(211,216,228)"/><rect x="29" y="1" width="2" height="1" fill="rgb(211,216,228)"/><rect x="31" y="1" width="1" height="1" fill="rgb(212,217,228)"/><rect x="32" y="1" width="1" height="1" fill="rgb(210,215,227)"/><rect x="33" y="1" width="1" height="1" fill="rgb(212,218,229)"/><rect x="34" y="1" width="1" height="1" fill="rgb(212,217,229)"/><rect x="35" y="1" width="1" height="1" fill="rgb(211,216,228)"/><rect x="36" y="1" width="1" height="1" fill="rgb(213,218,230)"/><rect x="25" y="2" width="1" height="1" fill="rgb(210,215,227)"/><rect x="26" y="2" width="1" height="1" fill="rgb(212,217,228)"/><rect x="27" y="2" width="1" height="1" fill="rgb(211,216,228)"/><rect x="28" y="2" width="1" height="1" fill="rgb(210,215,227)"/><rect x="29" y="2" width="1" height="1" fill="rgb(211,216,228)"/><rect x="30" y="2" width="1" height="1" fill="rgb(211,216,228)"/><rect x="31" y="2" width="1" height="1" fill="rgb(210,215,227)"/><rect x="32" y="2" width="1" height="1" fill="rgb(210,215,227)"/><rect x="33" y="2" width="1" height="1" fill="rgb(212,217,229)"/><rect x="34" y="2" width="2" height="1" fill="rgb(211,216,228)"/><rect x="36" y="2" width="1" height="1" fill="rgb(211,216,228)"/><rect x="37" y="2" width="1" height="1" fill="rgb(213,218,230)"/><rect x="38" y="2" width="1" height="1" fill="rgb(214,219,230)"/><rect x="39" y="2" width="1" height="1" fill="rgb(212,217,228)"/><rect x="23" y="3" width="1" height="1" fill="rgb(213,218,230)"/><rect x="24" y="3" width="1" height="1" fill="rgb(213,218,229)"/><rect x="25" y="3" width="1" height="1" fill="rgb(212,217,229)"/><rect x="26" y="3" width="1" height="1" fill="rgb(211,216,228)"/><rect x="27" y="3" width="1" height="1" fill="rgb(212,217,229)"/><rect x="28" y="3" width="1" height="1" fill="rgb(212,218,229)"/><rect x="29" y="3" width="2" height="1" fill="rgb(211,216,228)"/><rect x="31" y="3" width="1" height="1" fill="rgb(211,216,228)"/><rect x="32" y="3" width="1" height="1" fill="rgb(211,216,228)"/><rect x="33" y="3" width="1" height="1" fill="rgb(215,220,231)"/><rect x="34" y="3" width="2" height="1" fill="rgb(211,216,228)"/><rect x="36" y="3" width="1" height="1" fill="rgb(212,217,229)"/><rect x="37" y="3" width="1" height="1" fill="rgb(213,218,229)"/><rect x="38" y="3" width="3" height="1" fill="rgb(211,216,228)"/><rect x="23" y="4" width="1" height="1" fill="rgb(212,217,229)"/><rect x="24" y="4" width="1" height="1" fill="rgb(211,216,228)"/><rect x="25" y="4" width="1" height="1" fill="rgb(212,217,228)"/><rect x="26" y="4" width="1" height="1" fill="rgb(211,216,228)"/><rect x="27" y="4" width="1" height="1" fill="rgb(212,217,229)"/><rect x="28" y="4" width="1" height="1" fill="rgb(212,218,229)"/><rect x="29" y="4" width="2" height="1" fill="rgb(211,216,228)"/><rect x="31" y="4" width="1" height="1" fill="rgb(211,216,228)"/><rect x="32" y="4" width="1" height="1" fill="rgb(211,216,228)"/><rect x="33" y="4" width="1" height="1" fill="rgb(215,220,231)"/><rect x="34" y="4" width="2" height="1" fill="rgb(211,216,228)"/><rect x="36" y="4" width="1" height="1" fill="rgb(212,218,229)"/><rect x="37" y="4" width="1" height="1" fill="rgb(213,218,229)"/><rect x="38" y="4" width="4" height="1" fill="rgb(211,216,228)"/><rect x="22" y="5" width="1" height="1" fill="rgb(212,217,228)"/><rect x="23" y="5" width="1" height="1" fill="rgb(214,219,230)"/><rect x="24" y="5" width="1" height="1" fill="rgb(211,216,228)"/><rect x="25" y="5" width="1" height="1" fill="rgb(211,216,228)"/><rect x="26" y="5" width="1" height="1" fill="rgb(213,218,230)"/><rect x="27" y="5" width="1" height="1" fill="rgb(211,216,228)"/><rect x="28" y="5" width="1" height="1" fill="rgb(93,99,121)"/><rect x="29" y="5" width="2" height="1" fill="rgb(94,100,122)"/><rect x="31" y="5" width="1" height="1" fill="rgb(95,101,123)"/><rect x="32" y="5" width="1" height="1" fill="rgb(94,100,122)"/><rect x="33" y="5" width="1" height="1" fill="rgb(96,101,123)"/><rect x="34" y="5" width="2" height="1" fill="rgb(94,100,122)"/><rect x="36" y="5" width="1" height="1" fill="rgb(93,99,121)"/><rect x="37" y="5" width="1" height="1" fill="rgb(214,219,231)"/><rect x="38" y="5" width="3" height="1" fill="rgb(211,216,228)"/><rect x="41" y="5" width="1" height="1" fill="rgb(210,215,227)"/><rect x="42" y="5" width="1" height="1" fill="rgb(218,223,234)"/><rect x="21" y="6" width="2" height="1" fill="rgb(211,216,228)"/><rect x="23" y="6" width="1" height="1" fill="rgb(211,216,228)"/><rect x="24" y="6" width="1" height="1" fill="rgb(212,218,229)"/><rect x="25" y="6" width="1" height="1" fill="rgb(210,215,227)"/><rect x="26" y="6" width="1" height="1" fill="rgb(92,98,120)"/><rect x="27" y="6" width="1" height="1" fill="rgb(97,103,124)"/><rect x="28" y="6" width="1" height="1" fill="rgb(96,102,123)"/><rect x="29" y="6" width="2" height="1" fill="rgb(96,101,123)"/><rect x="31" y="6" width="1" height="1" fill="rgb(97,103,124)"/><rect x="32" y="6" width="4" height="1" fill="rgb(96,101,123)"/><rect x="36" y="6" width="1" height="1" fill="rgb(95,101,123)"/><rect x="37" y="6" width="1" height="1" fill="rgb(91,97,119)"/><rect x="38" y="6" width="1" height="1" fill="rgb(211,216,228)"/><rect x="39" y="6" width="1" height="1" fill="rgb(211,216,228)"/><rect x="40" y="6" width="1" height="1" fill="rgb(211,216,228)"/><rect x="41" y="6" width="1" height="1" fill="rgb(211,216,228)"/><rect x="42" y="6" width="1" height="1" fill="rgb(219,224,235)"/><rect x="12" y="7" width="3" height="1" fill="rgb(212,217,229)"/><rect x="15" y="7" width="1" height="1" fill="rgb(212,217,228)"/><rect x="19" y="7" width="1" height="1" fill="rgb(210,215,227)"/><rect x="20" y="7" width="1" height="1" fill="rgb(212,217,228)"/><rect x="21" y="7" width="1" height="1" fill="rgb(213,218,230)"/><rect x="22" y="7" width="1" height="1" fill="rgb(214,219,230)"/><rect x="23" y="7" width="1" height="1" fill="rgb(214,219,230)"/><rect x="24" y="7" width="1" height="1" fill="rgb(215,220,231)"/><rect x="25" y="7" width="2" height="1" fill="rgb(94,100,122)"/><rect x="27" y="7" width="1" height="1" fill="rgb(96,102,124)"/><rect x="28" y="7" width="1" height="1" fill="rgb(95,101,122)"/><rect x="29" y="7" width="1" height="1" fill="rgb(94,100,122)"/><rect x="30" y="7" width="1" height="1" fill="rgb(145,151,168)"/><rect x="31" y="7" width="1" height="1" fill="rgb(146,152,169)"/><rect x="32" y="7" width="1" height="1" fill="rgb(95,101,123)"/><rect x="33" y="7" width="1" height="1" fill="rgb(97,103,124)"/><rect x="34" y="7" width="3" height="1" fill="rgb(94,100,122)"/><rect x="37" y="7" width="1" height="1" fill="rgb(97,103,124)"/><rect x="38" y="7" width="1" height="1" fill="rgb(212,218,229)"/><rect x="39" y="7" width="2" height="1" fill="rgb(214,219,230)"/><rect x="41" y="7" width="1" height="1" fill="rgb(214,219,230)"/><rect x="42" y="7" width="1" height="1" fill="rgb(214,219,230)"/><rect x="43" y="7" width="1" height="1" fill="rgb(210,215,227)"/><rect x="11" y="8" width="1" height="1" fill="rgb(211,216,228)"/><rect x="12" y="8" width="7" height="1" fill="rgb(211,216,228)"/><rect x="19" y="8" width="1" height="1" fill="rgb(211,216,228)"/><rect x="20" y="8" width="3" height="1" fill="rgb(211,216,228)"/><rect x="23" y="8" width="1" height="1" fill="rgb(212,217,229)"/><rect x="24" y="8" width="1" height="1" fill="rgb(96,102,123)"/><rect x="25" y="8" width="2" height="1" fill="rgb(94,100,122)"/><rect x="27" y="8" width="1" height="1" fill="rgb(94,100,122)"/><rect x="28" y="8" width="1" height="1" fill="rgb(145,151,168)"/><rect x="29" y="8" width="4" height="1" fill="rgb(143,149,166)"/><rect x="33" y="8" width="1" height="1" fill="rgb(143,149,166)"/><rect x="34" y="8" width="2" height="1" fill="rgb(143,149,166)"/><rect x="36" y="8" width="1" height="1" fill="rgb(94,100,122)"/><rect x="37" y="8" width="1" height="1" fill="rgb(96,102,123)"/><rect x="38" y="8" width="1" height="1" fill="rgb(210,215,227)"/><rect x="39" y="8" width="6" height="1" fill="rgb(211,216,228)"/><rect x="9" y="9" width="1" height="1" fill="rgb(212,217,228)"/><rect x="10" y="9" width="1" height="1" fill="rgb(211,216,228)"/><rect x="11" y="9" width="1" height="1" fill="rgb(211,216,228)"/><rect x="12" y="9" width="7" height="1" fill="rgb(211,216,228)"/><rect x="19" y="9" width="1" height="1" fill="rgb(211,216,228)"/><rect x="20" y="9" width="3" height="1" fill="rgb(211,216,228)"/><rect x="23" y="9" width="1" height="1" fill="rgb(95,101,122)"/><rect x="24" y="9" width="1" height="1" fill="rgb(95,101,123)"/><rect x="25" y="9" width="1" height="1" fill="rgb(94,100,122)"/><rect x="26" y="9" width="1" height="1" fill="rgb(94,100,122)"/><rect x="27" y="9" width="1" height="1" fill="rgb(143,149,166)"/><rect x="28" y="9" width="1" height="1" fill="rgb(145,151,168)"/><rect x="29" y="9" width="3" height="1" fill="rgb(143,149,166)"/><rect x="32" y="9" width="1" height="1" fill="rgb(142,147,165)"/><rect x="33" y="9" width="1" height="1" fill="rgb(144,150,167)"/><rect x="34" y="9" width="2" height="1" fill="rgb(143,149,166)"/><rect x="36" y="9" width="1" height="1" fill="rgb(142,147,165)"/><rect x="37" y="9" width="1" height="1" fill="rgb(96,102,123)"/><rect x="38" y="9" width="1" height="1" fill="rgb(210,215,227)"/><rect x="39" y="9" width="1" height="1" fill="rgb(211,216,228)"/><rect x="40" y="9" width="1" height="1" fill="rgb(210,215,227)"/><rect x="41" y="9" width="6" height="1" fill="rgb(211,216,228)"/><rect x="8" y="10" width="1" height="1" fill="rgb(220,225,236)"/><rect x="9" y="10" width="1" height="1" fill="rgb(211,216,228)"/><rect x="10" y="10" width="1" height="1" fill="rgb(212,217,228)"/><rect x="11" y="10" width="4" height="1" fill="rgb(211,216,228)"/><rect x="15" y="10" width="1" height="1" fill="rgb(212,217,228)"/><rect x="16" y="10" width="3" height="1" fill="rgb(211,216,228)"/><rect x="19" y="10" width="1" height="1" fill="rgb(211,216,228)"/><rect x="20" y="10" width="1" height="1" fill="rgb(212,217,228)"/><rect x="21" y="10" width="2" height="1" fill="rgb(211,216,228)"/><rect x="23" y="10" width="1" height="1" fill="rgb(95,101,122)"/><rect x="24" y="10" width="1" height="1" fill="rgb(95,101,123)"/><rect x="25" y="10" width="1" height="1" fill="rgb(94,100,122)"/><rect x="26" y="10" width="1" height="1" fill="rgb(143,149,166)"/><rect x="27" y="10" width="1" height="1" fill="rgb(143,149,166)"/><rect x="28" y="10" width="1" height="1" fill="rgb(145,151,168)"/><rect x="29" y="10" width="3" height="1" fill="rgb(143,149,166)"/><rect x="32" y="10" width="1" height="1" fill="rgb(142,147,165)"/><rect x="33" y="10" width="1" height="1" fill="rgb(144,150,167)"/><rect x="34" y="10" width="2" height="1" fill="rgb(143,149,166)"/><rect x="36" y="10" width="1" height="1" fill="rgb(142,147,165)"/><rect x="37" y="10" width="1" height="1" fill="rgb(96,102,123)"/><rect x="38" y="10" width="1" height="1" fill="rgb(210,215,227)"/><rect x="39" y="10" width="1" height="1" fill="rgb(211,216,228)"/><rect x="40" y="10" width="1" height="1" fill="rgb(210,215,227)"/><rect x="41" y="10" width="1" height="1" fill="rgb(212,217,228)"/><rect x="42" y="10" width="2" height="1" fill="rgb(211,216,228)"/><rect x="44" y="10" width="1" height="1" fill="rgb(212,217,228)"/><rect x="45" y="10" width="1" height="1" fill="rgb(211,216,228)"/><rect x="46" y="10" width="1" height="1" fill="rgb(211,216,228)"/><rect x="47" y="10" width="1" height="1" fill="rgb(212,217,229)"/><rect x="8" y="11" width="1" height="1" fill="rgb(220,225,236)"/><rect x="9" y="11" width="2" height="1" fill="rgb(211,216,228)"/><rect x="11" y="11" width="1" height="1" fill="rgb(211,216,228)"/><rect x="12" y="11" width="2" height="1" fill="rgb(211,216,228)"/><rect x="14" y="11" width="1" height="1" fill="rgb(210,215,227)"/><rect x="15" y="11" width="4" height="1" fill="rgb(211,216,228)"/><rect x="19" y="11" width="1" height="1" fill="rgb(211,216,228)"/><rect x="20" y="11" width="2" height="1" fill="rgb(212,217,228)"/><rect x="22" y="11" width="1" height="1" fill="rgb(210,215,227)"/><rect x="23" y="11" width="2" height="1" fill="rgb(95,101,123)"/><rect x="25" y="11" width="1" height="1" fill="rgb(143,149,166)"/><rect x="26" y="11" width="1" height="1" fill="rgb(143,149,166)"/><rect x="27" y="11" width="1" height="1" fill="rgb(143,149,166)"/><rect x="28" y="11" width="1" height="1" fill="rgb(145,151,168)"/><rect x="29" y="11" width="2" height="1" fill="rgb(143,149,166)"/><rect x="31" y="11" width="1" height="1" fill="rgb(142,147,165)"/><rect x="32" y="11" width="1" height="1" fill="rgb(143,149,166)"/><rect x="33" y="11" width="1" height="1" fill="rgb(143,149,166)"/><rect x="34" y="11" width="2" height="1" fill="rgb(143,149,166)"/><rect x="36" y="11" width="1" height="1" fill="rgb(142,147,165)"/><rect x="37" y="11" width="1" height="1" fill="rgb(143,149,166)"/><rect x="38" y="11" width="3" height="1" fill="rgb(143,149,166)"/><rect x="41" y="11" width="1" height="1" fill="rgb(212,217,228)"/><rect x="42" y="11" width="1" height="1" fill="rgb(210,215,227)"/><rect x="43" y="11" width="2" height="1" fill="rgb(211,216,228)"/><rect x="45" y="11" width="1" height="1" fill="rgb(210,215,227)"/><rect x="46" y="11" width="1" height="1" fill="rgb(211,216,228)"/><rect x="47" y="11" width="1" height="1" fill="rgb(210,215,227)"/><rect x="7" y="12" width="1" height="1" fill="rgb(213,218,230)"/><rect x="8" y="12" width="10" height="1" fill="rgb(211,216,228)"/><rect x="18" y="12" width="1" height="1" fill="rgb(130,136,154)"/><rect x="19" y="12" width="1" height="1" fill="rgb(141,146,164)"/><rect x="20" y="12" width="2" height="1" fill="rgb(143,149,166)"/><rect x="22" y="12" width="1" height="1" fill="rgb(142,148,166)"/><rect x="23" y="12" width="1" height="1" fill="rgb(94,100,122)"/><rect x="24" y="12" width="1" height="1" fill="rgb(144,150,167)"/><rect x="25" y="12" width="2" height="1" fill="rgb(143,149,166)"/><rect x="27" y="12" width="1" height="1" fill="rgb(143,149,166)"/><rect x="28" y="12" width="1" height="1" fill="rgb(144,150,167)"/><rect x="29" y="12" width="2" height="1" fill="rgb(143,149,166)"/><rect x="31" y="12" width="2" height="1" fill="rgb(142,147,165)"/><rect x="33" y="12" width="1" height="1" fill="rgb(144,150,167)"/><rect x="34" y="12" width="2" height="1" fill="rgb(143,149,166)"/><rect x="36" y="12" width="1" height="1" fill="rgb(143,149,166)"/><rect x="37" y="12" width="1" height="1" fill="rgb(145,151,168)"/><rect x="38" y="12" width="5" height="1" fill="rgb(143,149,166)"/><rect x="43" y="12" width="1" height="1" fill="rgb(143,149,166)"/><rect x="44" y="12" width="1" height="1" fill="rgb(143,149,166)"/><rect x="45" y="12" width="3" height="1" fill="rgb(211,216,228)"/><rect x="48" y="12" width="1" height="1" fill="rgb(210,216,227)"/><rect x="49" y="12" width="1" height="1" fill="rgb(207,212,224)"/><rect x="6" y="13" width="1" height="1" fill="rgb(212,217,228)"/><rect x="7" y="13" width="1" height="1" fill="rgb(213,218,230)"/><rect x="8" y="13" width="8" height="1" fill="rgb(211,216,228)"/><rect x="16" y="13" width="1" height="1" fill="rgb(211,216,228)"/><rect x="17" y="13" width="2" height="1" fill="rgb(143,149,166)"/><rect x="19" y="13" width="1" height="1" fill="rgb(142,147,165)"/><rect x="20" y="13" width="2" height="1" fill="rgb(143,149,166)"/><rect x="22" y="13" width="1" height="1" fill="rgb(142,148,166)"/><rect x="23" y="13" width="1" height="1" fill="rgb(94,100,122)"/><rect x="24" y="13" width="1" height="1" fill="rgb(144,150,167)"/><rect x="25" y="13" width="1" height="1" fill="rgb(143,149,166)"/><rect x="26" y="13" width="1" height="1" fill="rgb(143,149,166)"/><rect x="27" y="13" width="1" height="1" fill="rgb(143,149,166)"/><rect x="28" y="13" width="1" height="1" fill="rgb(145,151,168)"/><rect x="29" y="13" width="2" height="1" fill="rgb(143,149,166)"/><rect x="31" y="13" width="1" height="1" fill="rgb(142,147,165)"/><rect x="32" y="13" width="1" height="1" fill="rgb(143,149,166)"/><rect x="33" y="13" width="1" height="1" fill="rgb(144,150,167)"/><rect x="34" y="13" width="3" height="1" fill="rgb(143,149,166)"/><rect x="37" y="13" width="1" height="1" fill="rgb(145,151,168)"/><rect x="38" y="13" width="8" height="1" fill="rgb(143,149,166)"/><rect x="46" y="13" width="2" height="1" fill="rgb(211,216,228)"/><rect x="48" y="13" width="1" height="1" fill="rgb(210,216,227)"/><rect x="49" y="13" width="1" height="1" fill="rgb(212,217,228)"/><rect x="4" y="14" width="1" height="1" fill="rgb(211,216,228)"/><rect x="5" y="14" width="2" height="1" fill="rgb(211,216,228)"/><rect x="7" y="14" width="1" height="1" fill="rgb(212,217,229)"/><rect x="8" y="14" width="3" height="1" fill="rgb(211,216,228)"/><rect x="11" y="14" width="1" height="1" fill="rgb(211,216,228)"/><rect x="12" y="14" width="3" height="1" fill="rgb(211,216,228)"/><rect x="15" y="14" width="4" height="1" fill="rgb(143,149,166)"/><rect x="19" y="14" width="1" height="1" fill="rgb(142,147,165)"/><rect x="20" y="14" width="2" height="1" fill="rgb(143,149,166)"/><rect x="22" y="14" width="1" height="1" fill="rgb(142,148,166)"/><rect x="23" y="14" width="1" height="1" fill="rgb(95,101,123)"/><rect x="24" y="14" width="1" height="1" fill="rgb(144,150,167)"/><rect x="25" y="14" width="1" height="1" fill="rgb(143,149,166)"/><rect x="26" y="14" width="1" height="1" fill="rgb(143,149,166)"/><rect x="27" y="14" width="1" height="1" fill="rgb(143,149,166)"/><rect x="28" y="14" width="1" height="1" fill="rgb(145,151,168)"/><rect x="29" y="14" width="3" height="1" fill="rgb(143,149,166)"/><rect x="32" y="14" width="1" height="1" fill="rgb(142,147,165)"/><rect x="33" y="14" width="1" height="1" fill="rgb(144,150,167)"/><rect x="34" y="14" width="3" height="1" fill="rgb(143,149,166)"/><rect x="37" y="14" width="1" height="1" fill="rgb(145,151,168)"/><rect x="38" y="14" width="8" height="1" fill="rgb(143,149,166)"/><rect x="46" y="14" width="2" height="1" fill="rgb(211,216,228)"/><rect x="48" y="14" width="1" height="1" fill="rgb(209,214,226)"/><rect x="49" y="14" width="1" height="1" fill="rgb(211,216,228)"/><rect x="3" y="15" width="1" height="1" fill="rgb(212,217,228)"/><rect x="4" y="15" width="1" height="1" fill="rgb(212,218,229)"/><rect x="5" y="15" width="2" height="1" fill="rgb(211,216,228)"/><rect x="7" y="15" width="1" height="1" fill="rgb(212,217,229)"/><rect x="8" y="15" width="1" height="1" fill="rgb(211,216,228)"/><rect x="9" y="15" width="1" height="1" fill="rgb(212,218,229)"/><rect x="10" y="15" width="1" height="1" fill="rgb(211,216,228)"/><rect x="11" y="15" width="1" height="1" fill="rgb(211,216,228)"/><rect x="12" y="15" width="1" height="1" fill="rgb(211,216,228)"/><rect x="13" y="15" width="1" height="1" fill="rgb(213,218,230)"/><rect x="14" y="15" width="1" height="1" fill="rgb(143,149,166)"/><rect x="15" y="15" width="3" height="1" fill="rgb(142,148,165)"/><rect x="18" y="15" width="1" height="1" fill="rgb(141,147,164)"/><rect x="19" y="15" width="1" height="1" fill="rgb(144,149,167)"/><rect x="20" y="15" width="2" height="1" fill="rgb(143,149,166)"/><rect x="22" y="15" width="1" height="1" fill="rgb(144,150,167)"/><rect x="23" y="15" width="1" height="1" fill="rgb(94,100,122)"/><rect x="24" y="15" width="1" height="1" fill="rgb(93,99,121)"/><rect x="25" y="15" width="1" height="1" fill="rgb(143,149,166)"/><rect x="26" y="15" width="1" height="1" fill="rgb(143,149,166)"/><rect x="27" y="15" width="1" height="1" fill="rgb(143,149,166)"/><rect x="28" y="15" width="1" height="1" fill="rgb(145,151,168)"/><rect x="29" y="15" width="2" height="1" fill="rgb(142,148,165)"/><rect x="31" y="15" width="1" height="1" fill="rgb(143,149,166)"/><rect x="32" y="15" width="1" height="1" fill="rgb(141,147,165)"/><rect x="33" y="15" width="1" height="1" fill="rgb(143,149,166)"/><rect x="34" y="15" width="3" height="1" fill="rgb(142,148,165)"/><rect x="37" y="15" width="1" height="1" fill="rgb(144,150,167)"/><rect x="38" y="15" width="2" height="1" fill="rgb(142,148,165)"/><rect x="40" y="15" width="1" height="1" fill="rgb(143,148,166)"/><rect x="41" y="15" width="4" height="1" fill="rgb(142,148,165)"/><rect x="45" y="15" width="1" height="1" fill="rgb(142,148,166)"/><rect x="46" y="15" width="1" height="1" fill="rgb(213,218,230)"/><rect x="47" y="15" width="1" height="1" fill="rgb(211,216,228)"/><rect x="48" y="15" width="1" height="1" fill="rgb(212,217,229)"/><rect x="49" y="15" width="1" height="1" fill="rgb(211,216,228)"/><rect x="2" y="16" width="1" height="1" fill="rgb(210,216,227)"/><rect x="3" y="16" width="1" height="1" fill="rgb(210,215,227)"/><rect x="4" y="16" width="3" height="1" fill="rgb(211,216,228)"/><rect x="7" y="16" width="1" height="1" fill="rgb(214,219,231)"/><rect x="8" y="16" width="3" height="1" fill="rgb(211,216,228)"/><rect x="11" y="16" width="1" height="1" fill="rgb(216,221,233)"/><rect x="12" y="16" width="1" height="1" fill="rgb(215,220,232)"/><rect x="13" y="16" width="1" height="1" fill="rgb(146,152,169)"/><rect x="14" y="16" width="2" height="1" fill="rgb(143,149,166)"/><rect x="16" y="16" width="2" height="1" fill="rgb(146,152,169)"/><rect x="18" y="16" width="1" height="1" fill="rgb(90,96,118)"/><rect x="19" y="16" width="1" height="1" fill="rgb(93,99,121)"/><rect x="20" y="16" width="5" height="1" fill="rgb(94,100,122)"/><rect x="25" y="16" width="1" height="1" fill="rgb(93,99,121)"/><rect x="26" y="16" width="1" height="1" fill="rgb(94,100,122)"/><rect x="27" y="16" width="1" height="1" fill="rgb(148,153,170)"/><rect x="28" y="16" width="1" height="1" fill="rgb(144,150,167)"/><rect x="29" y="16" width="2" height="1" fill="rgb(143,149,166)"/><rect x="31" y="16" width="2" height="1" fill="rgb(142,147,165)"/><rect x="33" y="16" width="1" height="1" fill="rgb(144,150,167)"/><rect x="34" y="16" width="2" height="1" fill="rgb(143,149,166)"/><rect x="36" y="16" width="1" height="1" fill="rgb(143,149,166)"/><rect x="37" y="16" width="1" height="1" fill="rgb(145,151,168)"/><rect x="38" y="16" width="4" height="1" fill="rgb(143,149,166)"/><rect x="42" y="16" width="1" height="1" fill="rgb(144,150,167)"/><rect x="43" y="16" width="1" height="1" fill="rgb(146,152,169)"/><rect x="44" y="16" width="1" height="1" fill="rgb(144,150,167)"/><rect x="45" y="16" width="1" height="1" fill="rgb(143,149,166)"/><rect x="46" y="16" width="1" height="1" fill="rgb(144,149,167)"/><rect x="47" y="16" width="1" height="1" fill="rgb(211,216,228)"/><rect x="48" y="16" width="1" height="1" fill="rgb(210,216,227)"/><rect x="49" y="16" width="1" height="1" fill="rgb(222,227,238)"/><rect x="2" y="17" width="1" height="1" fill="rgb(210,216,227)"/><rect x="3" y="17" width="1" height="1" fill="rgb(210,215,227)"/><rect x="4" y="17" width="3" height="1" fill="rgb(211,216,228)"/><rect x="7" y="17" width="1" height="1" fill="rgb(210,215,227)"/><rect x="8" y="17" width="2" height="1" fill="rgb(211,216,228)"/><rect x="10" y="17" width="1" height="1" fill="rgb(146,151,168)"/><rect x="11" y="17" width="1" height="1" fill="rgb(143,149,166)"/><rect x="12" y="17" width="3" height="1" fill="rgb(143,149,166)"/><rect x="15" y="17" width="1" height="1" fill="rgb(97,103,124)"/><rect x="16" y="17" width="3" height="1" fill="rgb(94,100,122)"/><rect x="19" y="17" width="1" height="1" fill="rgb(93,99,121)"/><rect x="20" y="17" width="1" height="1" fill="rgb(94,100,122)"/><rect x="21" y="17" width="1" height="1" fill="rgb(141,147,165)"/><rect x="22" y="17" width="3" height="1" fill="rgb(94,100,122)"/><rect x="25" y="17" width="1" height="1" fill="rgb(93,99,121)"/><rect x="26" y="17" width="1" height="1" fill="rgb(94,100,122)"/><rect x="27" y="17" width="1" height="1" fill="rgb(94,100,122)"/><rect x="28" y="17" width="1" height="1" fill="rgb(96,102,123)"/><rect x="29" y="17" width="2" height="1" fill="rgb(143,149,166)"/><rect x="31" y="17" width="2" height="1" fill="rgb(142,147,165)"/><rect x="33" y="17" width="1" height="1" fill="rgb(144,150,167)"/><rect x="34" y="17" width="2" height="1" fill="rgb(143,149,166)"/><rect x="36" y="17" width="1" height="1" fill="rgb(143,149,166)"/><rect x="37" y="17" width="1" height="1" fill="rgb(143,148,166)"/><rect x="38" y="17" width="4" height="1" fill="rgb(143,149,166)"/><rect x="42" y="17" width="1" height="1" fill="rgb(92,98,120)"/><rect x="43" y="17" width="2" height="1" fill="rgb(94,100,122)"/><rect x="45" y="17" width="1" height="1" fill="rgb(98,104,125)"/><rect x="46" y="17" width="1" height="1" fill="rgb(211,216,228)"/><rect x="47" y="17" width="1" height="1" fill="rgb(211,216,228)"/><rect x="48" y="17" width="1" height="1" fill="rgb(212,217,229)"/><rect x="1" y="18" width="1" height="1" fill="rgb(213,218,230)"/><rect x="2" y="18" width="1" height="1" fill="rgb(209,214,226)"/><rect x="3" y="18" width="1" height="1" fill="rgb(210,216,227)"/><rect x="4" y="18" width="1" height="1" fill="rgb(212,217,229)"/><rect x="5" y="18" width="2" height="1" fill="rgb(212,217,228)"/><rect x="7" y="18" width="1" height="1" fill="rgb(210,215,227)"/><rect x="8" y="18" width="1" height="1" fill="rgb(212,217,229)"/><rect x="9" y="18" width="1" height="1" fill="rgb(144,150,167)"/><rect x="10" y="18" width="1" height="1" fill="rgb(144,150,167)"/><rect x="11" y="18" width="1" height="1" fill="rgb(143,149,166)"/><rect x="12" y="18" width="1" height="1" fill="rgb(144,150,167)"/><rect x="13" y="18" width="1" height="1" fill="rgb(143,149,166)"/><rect x="14" y="18" width="1" height="1" fill="rgb(97,103,124)"/><rect x="15" y="18" width="1" height="1" fill="rgb(94,100,122)"/><rect x="16" y="18" width="3" height="1" fill="rgb(143,149,166)"/><rect x="19" y="18" width="1" height="1" fill="rgb(144,149,167)"/><rect x="20" y="18" width="1" height="1" fill="rgb(143,149,166)"/><rect x="21" y="18" width="1" height="1" fill="rgb(144,150,167)"/><rect x="22" y="18" width="1" height="1" fill="rgb(143,149,166)"/><rect x="23" y="18" width="1" height="1" fill="rgb(143,149,166)"/><rect x="24" y="18" width="1" height="1" fill="rgb(143,149,166)"/><rect x="25" y="18" width="2" height="1" fill="rgb(94,100,122)"/><rect x="27" y="18" width="1" height="1" fill="rgb(94,100,122)"/><rect x="28" y="18" width="1" height="1" fill="rgb(93,99,121)"/><rect x="29" y="18" width="1" height="1" fill="rgb(94,100,122)"/><rect x="30" y="18" width="1" height="1" fill="rgb(144,150,167)"/><rect x="31" y="18" width="1" height="1" fill="rgb(145,151,168)"/><rect x="32" y="18" width="1" height="1" fill="rgb(143,149,166)"/><rect x="33" y="18" width="1" height="1" fill="rgb(144,150,167)"/><rect x="34" y="18" width="3" height="1" fill="rgb(144,150,167)"/><rect x="37" y="18" width="1" height="1" fill="rgb(143,149,166)"/><rect x="38" y="18" width="2" height="1" fill="rgb(144,150,167)"/><rect x="40" y="18" width="1" height="1" fill="rgb(144,150,167)"/><rect x="41" y="18" width="1" height="1" fill="rgb(94,100,122)"/><rect x="42" y="18" width="4" height="1" fill="rgb(94,100,122)"/><rect x="46" y="18" width="1" height="1" fill="rgb(212,217,228)"/><rect x="47" y="18" width="1" height="1" fill="rgb(212,218,229)"/><rect x="48" y="18" width="2" height="1" fill="rgb(212,217,229)"/><rect x="50" y="18" width="1" height="1" fill="rgb(213,218,230)"/><rect x="51" y="18" width="1" height="1" fill="rgb(209,214,226)"/><rect x="0" y="19" width="2" height="1" fill="rgb(211,216,228)"/><rect x="2" y="19" width="1" height="1" fill="rgb(209,214,226)"/><rect x="3" y="19" width="1" height="1" fill="rgb(210,215,227)"/><rect x="4" y="19" width="3" height="1" fill="rgb(211,216,228)"/><rect x="7" y="19" width="1" height="1" fill="rgb(142,147,165)"/><rect x="8" y="19" width="3" height="1" fill="rgb(143,149,166)"/><rect x="11" y="19" width="1" height="1" fill="rgb(142,148,165)"/><rect x="12" y="19" width="7" height="1" fill="rgb(143,149,166)"/><rect x="19" y="19" width="1" height="1" fill="rgb(142,147,165)"/><rect x="20" y="19" width="3" height="1" fill="rgb(143,149,166)"/><rect x="23" y="19" width="1" height="1" fill="rgb(143,149,166)"/><rect x="24" y="19" width="1" height="1" fill="rgb(143,149,166)"/><rect x="25" y="19" width="1" height="1" fill="rgb(143,149,166)"/><rect x="26" y="19" width="1" height="1" fill="rgb(94,100,122)"/><rect x="27" y="19" width="1" height="1" fill="rgb(95,101,123)"/><rect x="28" y="19" width="1" height="1" fill="rgb(93,99,121)"/><rect x="29" y="19" width="2" height="1" fill="rgb(94,100,122)"/><rect x="31" y="19" width="1" height="1" fill="rgb(143,149,166)"/><rect x="32" y="19" width="1" height="1" fill="rgb(142,147,165)"/><rect x="33" y="19" width="1" height="1" fill="rgb(144,150,167)"/><rect x="34" y="19" width="3" height="1" fill="rgb(143,149,166)"/><rect x="37" y="19" width="1" height="1" fill="rgb(145,151,168)"/><rect x="38" y="19" width="3" height="1" fill="rgb(143,149,166)"/><rect x="41" y="19" width="1" height="1" fill="rgb(94,100,122)"/><rect x="42" y="19" width="1" height="1" fill="rgb(93,99,121)"/><rect x="43" y="19" width="5" height="1" fill="rgb(143,149,166)"/><rect x="48" y="19" width="1" height="1" fill="rgb(142,148,165)"/><rect x="49" y="19" width="1" height="1" fill="rgb(210,215,227)"/><rect x="50" y="19" width="2" height="1" fill="rgb(211,216,228)"/><rect x="52" y="19" width="1" height="1" fill="rgb(189,194,208)"/><rect x="0" y="20" width="2" height="1" fill="rgb(211,216,228)"/><rect x="2" y="20" width="1" height="1" fill="rgb(210,215,227)"/><rect x="3" y="20" width="1" height="1" fill="rgb(210,215,227)"/><rect x="4" y="20" width="1" height="1" fill="rgb(212,217,228)"/><rect x="5" y="20" width="2" height="1" fill="rgb(143,149,166)"/><rect x="7" y="20" width="1" height="1" fill="rgb(142,147,165)"/><rect x="8" y="20" width="3" height="1" fill="rgb(143,149,166)"/><rect x="11" y="20" width="1" height="1" fill="rgb(143,149,166)"/><rect x="12" y="20" width="11" height="1" fill="rgb(143,149,166)"/><rect x="23" y="20" width="1" height="1" fill="rgb(143,149,166)"/><rect x="24" y="20" width="1" height="1" fill="rgb(143,149,166)"/><rect x="25" y="20" width="1" height="1" fill="rgb(143,149,166)"/><rect x="26" y="20" width="1" height="1" fill="rgb(143,149,166)"/><rect x="27" y="20" width="1" height="1" fill="rgb(95,101,123)"/><rect x="28" y="20" width="1" height="1" fill="rgb(94,100,122)"/><rect x="29" y="20" width="2" height="1" fill="rgb(94,100,122)"/><rect x="31" y="20" width="1" height="1" fill="rgb(143,149,166)"/><rect x="32" y="20" width="1" height="1" fill="rgb(142,147,165)"/><rect x="33" y="20" width="1" height="1" fill="rgb(143,149,166)"/><rect x="34" y="20" width="3" height="1" fill="rgb(143,149,166)"/><rect x="37" y="20" width="1" height="1" fill="rgb(145,151,168)"/><rect x="38" y="20" width="2" height="1" fill="rgb(143,149,166)"/><rect x="40" y="20" width="2" height="1" fill="rgb(94,100,122)"/><rect x="42" y="20" width="6" height="1" fill="rgb(143,149,166)"/><rect x="48" y="20" width="1" height="1" fill="rgb(143,149,166)"/><rect x="49" y="20" width="1" height="1" fill="rgb(143,149,166)"/><rect x="50" y="20" width="2" height="1" fill="rgb(211,216,228)"/><rect x="52" y="20" width="1" height="1" fill="rgb(195,200,213)"/><rect x="1" y="21" width="1" height="1" fill="rgb(94,100,122)"/><rect x="2" y="21" width="1" height="1" fill="rgb(95,101,123)"/><rect x="3" y="21" width="1" height="1" fill="rgb(93,99,121)"/><rect x="4" y="21" width="1" height="1" fill="rgb(142,148,166)"/><rect x="5" y="21" width="1" height="1" fill="rgb(144,150,167)"/><rect x="6" y="21" width="1" height="1" fill="rgb(143,149,166)"/><rect x="7" y="21" width="1" height="1" fill="rgb(142,147,165)"/><rect x="8" y="21" width="3" height="1" fill="rgb(143,149,166)"/><rect x="11" y="21" width="1" height="1" fill="rgb(143,149,166)"/><rect x="12" y="21" width="11" height="1" fill="rgb(143,149,166)"/><rect x="23" y="21" width="1" height="1" fill="rgb(143,149,166)"/><rect x="24" y="21" width="1" height="1" fill="rgb(143,149,166)"/><rect x="25" y="21" width="1" height="1" fill="rgb(143,149,166)"/><rect x="26" y="21" width="1" height="1" fill="rgb(143,149,166)"/><rect x="27" y="21" width="1" height="1" fill="rgb(144,150,167)"/><rect x="28" y="21" width="1" height="1" fill="rgb(94,100,122)"/><rect x="29" y="21" width="2" height="1" fill="rgb(94,100,122)"/><rect x="31" y="21" width="1" height="1" fill="rgb(147,152,169)"/><rect x="32" y="21" width="1" height="1" fill="rgb(142,147,165)"/><rect x="33" y="21" width="1" height="1" fill="rgb(144,150,167)"/><rect x="34" y="21" width="2" height="1" fill="rgb(143,149,166)"/><rect x="36" y="21" width="1" height="1" fill="rgb(143,149,166)"/><rect x="37" y="21" width="1" height="1" fill="rgb(145,151,168)"/><rect x="38" y="21" width="2" height="1" fill="rgb(143,149,166)"/><rect x="40" y="21" width="2" height="1" fill="rgb(94,100,122)"/><rect x="42" y="21" width="6" height="1" fill="rgb(143,149,166)"/><rect x="48" y="21" width="1" height="1" fill="rgb(142,148,165)"/><rect x="49" y="21" width="2" height="1" fill="rgb(143,149,166)"/><rect x="51" y="21" width="1" height="1" fill="rgb(211,216,228)"/><rect x="52" y="21" width="1" height="1" fill="rgb(195,200,213)"/><rect x="2" y="22" width="1" height="1" fill="rgb(94,100,122)"/><rect x="3" y="22" width="1" height="1" fill="rgb(94,100,122)"/><rect x="4" y="22" width="2" height="1" fill="rgb(95,101,123)"/><rect x="6" y="22" width="1" height="1" fill="rgb(94,100,122)"/><rect x="7" y="22" width="1" height="1" fill="rgb(95,101,123)"/><rect x="8" y="22" width="1" height="1" fill="rgb(142,148,166)"/><rect x="9" y="22" width="2" height="1" fill="rgb(143,149,166)"/><rect x="11" y="22" width="1" height="1" fill="rgb(142,148,165)"/><rect x="12" y="22" width="5" height="1" fill="rgb(143,149,166)"/><rect x="17" y="22" width="2" height="1" fill="rgb(142,148,166)"/><rect x="19" y="22" width="1" height="1" fill="rgb(143,149,166)"/><rect x="20" y="22" width="4" height="1" fill="rgb(143,149,166)"/><rect x="24" y="22" width="1" height="1" fill="rgb(142,148,166)"/><rect x="25" y="22" width="1" height="1" fill="rgb(143,149,166)"/><rect x="26" y="22" width="1" height="1" fill="rgb(143,149,166)"/><rect x="27" y="22" width="1" height="1" fill="rgb(96,102,123)"/><rect x="28" y="22" width="1" height="1" fill="rgb(94,100,122)"/><rect x="29" y="22" width="2" height="1" fill="rgb(95,101,123)"/><rect x="31" y="22" width="1" height="1" fill="rgb(96,101,123)"/><rect x="32" y="22" width="1" height="1" fill="rgb(95,101,123)"/><rect x="33" y="22" width="1" height="1" fill="rgb(94,100,122)"/><rect x="34" y="22" width="1" height="1" fill="rgb(142,148,166)"/><rect x="35" y="22" width="1" height="1" fill="rgb(143,149,166)"/><rect x="36" y="22" width="1" height="1" fill="rgb(142,148,165)"/><rect x="37" y="22" width="1" height="1" fill="rgb(144,150,167)"/><rect x="38" y="22" width="2" height="1" fill="rgb(143,149,166)"/><rect x="40" y="22" width="1" height="1" fill="rgb(94,100,122)"/><rect x="41" y="22" width="1" height="1" fill="rgb(95,101,123)"/><rect x="42" y="22" width="1" height="1" fill="rgb(93,99,121)"/><rect x="43" y="22" width="2" height="1" fill="rgb(143,149,166)"/><rect x="45" y="22" width="1" height="1" fill="rgb(143,149,166)"/><rect x="46" y="22" width="2" height="1" fill="rgb(143,149,166)"/><rect x="48" y="22" width="1" height="1" fill="rgb(144,150,167)"/><rect x="49" y="22" width="1" height="1" fill="rgb(143,149,166)"/><rect x="50" y="22" width="1" height="1" fill="rgb(143,149,166)"/><rect x="51" y="22" width="1" height="1" fill="rgb(211,216,228)"/><rect x="52" y="22" width="1" height="1" fill="rgb(191,196,210)"/><rect x="3" y="23" width="1" height="1" fill="rgb(96,102,123)"/><rect x="4" y="23" width="3" height="1" fill="rgb(94,100,122)"/><rect x="7" y="23" width="1" height="1" fill="rgb(94,100,122)"/><rect x="8" y="23" width="1" height="1" fill="rgb(94,100,122)"/><rect x="9" y="23" width="2" height="1" fill="rgb(143,149,166)"/><rect x="11" y="23" width="1" height="1" fill="rgb(142,148,165)"/><rect x="12" y="23" width="7" height="1" fill="rgb(143,149,166)"/><rect x="19" y="23" width="1" height="1" fill="rgb(142,147,165)"/><rect x="20" y="23" width="3" height="1" fill="rgb(143,149,166)"/><rect x="23" y="23" width="1" height="1" fill="rgb(143,149,166)"/><rect x="24" y="23" width="1" height="1" fill="rgb(143,149,166)"/><rect x="25" y="23" width="2" height="1" fill="rgb(94,100,122)"/><rect x="27" y="23" width="1" height="1" fill="rgb(95,101,123)"/><rect x="28" y="23" width="1" height="1" fill="rgb(93,99,121)"/><rect x="29" y="23" width="3" height="1" fill="rgb(94,100,122)"/><rect x="32" y="23" width="1" height="1" fill="rgb(95,101,123)"/><rect x="33" y="23" width="1" height="1" fill="rgb(94,100,122)"/><rect x="34" y="23" width="2" height="1" fill="rgb(94,100,122)"/><rect x="36" y="23" width="1" height="1" fill="rgb(143,149,166)"/><rect x="37" y="23" width="1" height="1" fill="rgb(145,151,168)"/><rect x="38" y="23" width="1" height="1" fill="rgb(143,149,166)"/><rect x="39" y="23" width="6" height="1" fill="rgb(94,100,122)"/><rect x="45" y="23" width="3" height="1" fill="rgb(143,149,166)"/><rect x="48" y="23" width="1" height="1" fill="rgb(142,148,165)"/><rect x="49" y="23" width="1" height="1" fill="rgb(142,148,166)"/><rect x="50" y="23" width="1" height="1" fill="rgb(143,149,166)"/><rect x="51" y="23" width="1" height="1" fill="rgb(94,100,122)"/><rect x="4" y="24" width="1" height="1" fill="rgb(95,101,122)"/><rect x="5" y="24" width="2" height="1" fill="rgb(94,100,122)"/><rect x="7" y="24" width="1" height="1" fill="rgb(95,101,123)"/><rect x="8" y="24" width="8" height="1" fill="rgb(94,100,122)"/><rect x="16" y="24" width="3" height="1" fill="rgb(143,149,166)"/><rect x="19" y="24" width="1" height="1" fill="rgb(143,149,166)"/><rect x="20" y="24" width="3" height="1" fill="rgb(94,100,122)"/><rect x="23" y="24" width="1" height="1" fill="rgb(95,101,123)"/><rect x="24" y="24" width="1" height="1" fill="rgb(94,100,122)"/><rect x="25" y="24" width="1" height="1" fill="rgb(94,100,122)"/><rect x="26" y="24" width="1" height="1" fill="rgb(94,100,122)"/><rect x="27" y="24" width="1" height="1" fill="rgb(95,101,123)"/><rect x="28" y="24" width="1" height="1" fill="rgb(94,100,122)"/><rect x="29" y="24" width="2" height="1" fill="rgb(94,100,122)"/><rect x="31" y="24" width="2" height="1" fill="rgb(95,101,123)"/><rect x="33" y="24" width="1" height="1" fill="rgb(93,99,121)"/><rect x="34" y="24" width="3" height="1" fill="rgb(94,100,122)"/><rect x="37" y="24" width="1" height="1" fill="rgb(96,101,123)"/><rect x="38" y="24" width="1" height="1" fill="rgb(94,100,122)"/><rect x="40" y="24" width="8" height="1" fill="rgb(94,100,122)"/><rect x="48" y="24" width="1" height="1" fill="rgb(93,99,121)"/><rect x="49" y="24" width="1" height="1" fill="rgb(142,148,165)"/><rect x="50" y="24" width="1" height="1" fill="rgb(94,100,122)"/><rect x="5" y="25" width="2" height="1" fill="rgb(94,100,122)"/><rect x="7" y="25" width="1" height="1" fill="rgb(94,100,122)"/><rect x="8" y="25" width="3" height="1" fill="rgb(94,100,122)"/><rect x="11" y="25" width="1" height="1" fill="rgb(94,100,122)"/><rect x="12" y="25" width="7" height="1" fill="rgb(94,100,122)"/><rect x="19" y="25" width="1" height="1" fill="rgb(93,99,121)"/><rect x="20" y="25" width="3" height="1" fill="rgb(94,100,122)"/><rect x="23" y="25" width="2" height="1" fill="rgb(95,101,123)"/><rect x="25" y="25" width="1" height="1" fill="rgb(94,100,122)"/><rect x="26" y="25" width="1" height="1" fill="rgb(94,100,122)"/><rect x="27" y="25" width="1" height="1" fill="rgb(95,101,123)"/><rect x="28" y="25" width="1" height="1" fill="rgb(93,99,121)"/><rect x="43" y="25" width="5" height="1" fill="rgb(94,100,122)"/><rect x="48" y="25" width="1" height="1" fill="rgb(93,99,121)"/><rect x="49" y="25" width="1" height="1" fill="rgb(94,100,122)"/><rect x="11" y="26" width="1" height="1" fill="rgb(95,101,123)"/><rect x="12" y="26" width="4" height="1" fill="rgb(95,101,123)"/><rect x="16" y="26" width="1" height="1" fill="rgb(97,103,124)"/><rect x="19" y="26" width="1" height="1" fill="rgb(95,101,122)"/><rect x="20" y="26" width="3" height="1" fill="rgb(95,101,123)"/><rect x="23" y="26" width="2" height="1" fill="rgb(94,100,122)"/><rect x="25" y="26" width="1" height="1" fill="rgb(95,101,123)"/><rect x="26" y="26" width="1" height="1" fill="rgb(95,101,123)"/></svg>
