<?xml version='1.0' encoding='utf-8'?>
<svg xmlns="http://www.w3.org/2000/svg" viewBox="0 0 67 18" shape-rendering="crispEdges"><rect x="35" y="0" width="1" height="1" fill="rgb(207,212,224)"/><rect x="36" y="0" width="2" height="1" fill="rgb(208,213,225)"/><rect x="38" y="0" width="1" height="1" fill="rgb(209,214,226)"/><rect x="39" y="0" width="1" height="1" fill="rgb(210,215,227)"/><rect x="40" y="0" width="1" height="1" fill="rgb(207,212,224)"/><rect x="41" y="0" width="1" height="1" fill="rgb(209,214,226)"/><rect x="42" y="0" width="1" height="1" fill="rgb(209,214,226)"/><rect x="30" y="1" width="1" height="1" fill="rgb(102,108,129)"/><rect x="31" y="1" width="1" height="1" fill="rgb(100,106,127)"/><rect x="32" y="1" width="1" height="1" fill="rgb(100,106,127)"/><rect x="33" y="1" width="1" height="1" fill="rgb(144,150,167)"/><rect x="34" y="1" width="1" height="1" fill="rgb(144,150,167)"/><rect x="35" y="1" width="1" height="1" fill="rgb(211,216,228)"/><rect x="36" y="1" width="2" height="1" fill="rgb(210,215,227)"/><rect x="38" y="1" width="1" height="1" fill="rgb(209,214,226)"/><rect x="39" y="1" width="2" height="1" fill="rgb(209,214,226)"/><rect x="41" y="1" width="2" height="1" fill="rgb(209,214,226)"/><rect x="43" y="1" width="1" height="1" fill="rgb(210,215,227)"/><rect x="44" y="1" width="1" height="1" fill="rgb(209,214,226)"/><rect x="45" y="1" width="1" height="1" fill="rgb(204,209,221)"/><rect x="46" y="1" width="1" height="1" fill="rgb(206,211,223)"/><rect x="30" y="2" width="1" height="1" fill="rgb(99,105,126)"/><rect x="31" y="2" width="1" height="1" fill="rgb(100,106,127)"/><rect x="32" y="2" width="1" height="1" fill="rgb(144,150,167)"/><rect x="33" y="2" width="1" height="1" fill="rgb(145,151,168)"/><rect x="34" y="2" width="1" height="1" fill="rgb(211,216,228)"/><rect x="35" y="2" width="1" height="1" fill="rgb(209,214,226)"/><rect x="36" y="2" width="3" height="1" fill="rgb(209,214,226)"/><rect x="39" y="2" width="1" height="1" fill="rgb(210,215,227)"/><rect x="40" y="2" width="1" height="1" fill="rgb(209,214,226)"/><rect x="41" y="2" width="2" height="1" fill="rgb(209,214,226)"/><rect x="43" y="2" width="1" height="1" fill="rgb(210,215,227)"/><rect x="44" y="2" width="4" height="1" fill="rgb(209,214,226)"/><rect x="24" y="3" width="1" height="1" fill="rgb(209,214,226)"/><rect x="25" y="3" width="1" height="1" fill="rgb(214,219,231)"/><rect x="26" y="3" width="2" height="1" fill="rgb(209,214,226)"/><rect x="28" y="3" width="2" height="1" fill="rgb(100,106,127)"/><rect x="30" y="3" width="1" height="1" fill="rgb(100,106,127)"/><rect x="31" y="3" width="1" height="1" fill="rgb(144,150,167)"/><rect x="32" y="3" width="1" height="1" fill="rgb(145,151,168)"/><rect x="33" y="3" width="1" height="1" fill="rgb(209,214,226)"/><rect x="34" y="3" width="1" height="1" fill="rgb(210,215,227)"/><rect x="35" y="3" width="1" height="1" fill="rgb(210,215,227)"/><rect x="36" y="3" width="3" height="1" fill="rgb(209,214,226)"/><rect x="39" y="3" width="2" height="1" fill="rgb(209,214,226)"/><rect x="41" y="3" width="2" height="1" fill="rgb(209,214,226)"/><rect x="43" y="3" width="1" height="1" fill="rgb(210,215,227)"/><rect x="44" y="3" width="1" height="1" fill="rgb(209,214,226)"/><rect x="45" y="3" width="3" height="1" fill="rgb(209,214,226)"/><rect x="48" y="3" width="1" height="1" fill="rgb(208,213,225)"/><rect x="49" y="3" width="1" height="1" fill="rgb(219,224,235)"/><rect x="21" y="4" width="3" height="1" fill="rgb(208,213,225)"/><rect x="24" y="4" width="1" height="1" fill="rgb(209,214,226)"/><rect x="25" y="4" width="1" height="1" fill="rgb(209,214,226)"/><rect x="26" y="4" width="1" height="1" fill="rgb(209,214,226)"/><rect x="27" y="4" width="1" height="1" fill="rgb(209,214,226)"/><rect x="28" y="4" width="2" height="1" fill="rgb(100,106,127)"/><rect x="30" y="4" width="1" height="1" fill="rgb(151,157,174)"/><rect x="31" y="4" width="1" height="1" fill="rgb(146,151,168)"/><rect x="32" y="4" width="1" height="1" fill="rgb(145,151,168)"/><rect x="33" y="4" width="1" height="1" fill="rgb(208,213,225)"/><rect x="34" y="4" width="1" height="1" fill="rgb(210,215,227)"/><rect x="35" y="4" width="1" height="1" fill="rgb(210,215,227)"/><rect x="36" y="4" width="1" height="1" fill="rgb(209,214,226)"/><rect x="37" y="4" width="1" height="1" fill="rgb(209,214,226)"/><rect x="38" y="4" width="1" height="1" fill="rgb(209,214,226)"/><rect x="39" y="4" width="1" height="1" fill="rgb(209,214,226)"/><rect x="40" y="4" width="2" height="1" fill="rgb(209,214,226)"/><rect x="42" y="4" width="1" height="1" fill="rgb(209,214,226)"/><rect x="43" y="4" width="1" height="1" fill="rgb(210,215,227)"/><rect x="44" y="4" width="3" height="1" fill="rgb(209,214,226)"/><rect x="47" y="4" width="1" height="1" fill="rgb(209,214,226)"/><rect x="48" y="4" width="1" height="1" fill="rgb(208,213,225)"/><rect x="49" y="4" width="1" height="1" fill="rgb(209,214,226)"/><rect x="18" y="5" width="1" height="1" fill="rgb(100,106,127)"/><rect x="19" y="5" width="1" height="1" fill="rgb(100,106,127)"/><rect x="20" y="5" width="1" height="1" fill="rgb(147,153,170)"/><rect x="21" y="5" width="1" height="1" fill="rgb(145,151,168)"/><rect x="22" y="5" width="1" height="1" fill="rgb(146,151,169)"/><rect x="23" y="5" width="1" height="1" fill="rgb(145,151,168)"/><rect x="24" y="5" width="3" height="1" fill="rgb(209,214,226)"/><rect x="27" y="5" width="2" height="1" fill="rgb(100,106,127)"/><rect x="29" y="5" width="1" height="1" fill="rgb(101,107,128)"/><rect x="30" y="5" width="1" height="1" fill="rgb(151,156,173)"/><rect x="31" y="5" width="1" height="1" fill="rgb(146,151,168)"/><rect x="32" y="5" width="1" height="1" fill="rgb(145,151,168)"/><rect x="33" y="5" width="1" height="1" fill="rgb(146,152,169)"/><rect x="34" y="5" width="1" height="1" fill="rgb(211,216,228)"/><rect x="35" y="5" width="1" height="1" fill="rgb(209,214,226)"/><rect x="36" y="5" width="3" height="1" fill="rgb(209,214,226)"/><rect x="39" y="5" width="2" height="1" fill="rgb(209,214,226)"/><rect x="41" y="5" width="2" height="1" fill="rgb(209,214,226)"/><rect x="43" y="5" width="1" height="1" fill="rgb(210,215,227)"/><rect x="44" y="5" width="4" height="1" fill="rgb(209,214,226)"/><rect x="48" y="5" width="1" height="1" fill="rgb(208,213,225)"/><rect x="49" y="5" width="2" height="1" fill="rgb(209,214,226)"/><rect x="51" y="5" width="1" height="1" fill="rgb(210,215,227)"/><rect x="15" y="6" width="1" height="1" fill="rgb(101,107,128)"/><rect x="16" y="6" width="1" height="1" fill="rgb(143,149,166)"/><rect x="17" y="6" width="3" height="1" fill="rgb(144,150,167)"/><rect x="20" y="6" width="1" height="1" fill="rgb(145,151,168)"/><rect x="21" y="6" width="1" height="1" fill="rgb(147,153,170)"/><rect x="22" y="6" width="1" height="1" fill="rgb(148,153,170)"/><rect x="23" y="6" width="3" height="1" fill="rgb(209,214,226)"/><rect x="26" y="6" width="1" height="1" fill="rgb(102,108,129)"/><rect x="27" y="6" width="2" height="1" fill="rgb(100,106,127)"/><rect x="29" y="6" width="1" height="1" fill="rgb(101,107,128)"/><rect x="30" y="6" width="2" height="1" fill="rgb(147,152,169)"/><rect x="32" y="6" width="2" height="1" fill="rgb(145,151,168)"/><rect x="34" y="6" width="1" height="1" fill="rgb(149,154,172)"/><rect x="35" y="6" width="1" height="1" fill="rgb(207,212,224)"/><rect x="36" y="6" width="3" height="1" fill="rgb(209,214,226)"/><rect x="39" y="6" width="1" height="1" fill="rgb(210,215,227)"/><rect x="40" y="6" width="1" height="1" fill="rgb(210,215,227)"/><rect x="41" y="6" width="7" height="1" fill="rgb(209,214,226)"/><rect x="48" y="6" width="1" height="1" fill="rgb(208,213,225)"/><rect x="49" y="6" width="2" height="1" fill="rgb(209,214,226)"/><rect x="51" y="6" width="1" height="1" fill="rgb(209,214,226)"/><rect x="52" y="6" width="1" height="1" fill="rgb(209,214,226)"/><rect x="14" y="7" width="1" height="1" fill="rgb(99,105,126)"/><rect x="15" y="7" width="1" height="1" fill="rgb(148,154,171)"/><rect x="16" y="7" width="3" height="1" fill="rgb(145,151,168)"/><rect x="19" y="7" width="1" height="1" fill="rgb(144,150,167)"/><rect x="20" y="7" width="3" height="1" fill="rgb(145,151,168)"/><rect x="23" y="7" width="3" height="1" fill="rgb(209,214,226)"/><rect x="26" y="7" width="3" height="1" fill="rgb(100,106,127)"/><rect x="29" y="7" width="1" height="1" fill="rgb(101,107,128)"/><rect x="30" y="7" width="2" height="1" fill="rgb(147,152,169)"/><rect x="32" y="7" width="2" height="1" fill="rgb(145,151,168)"/><rect x="34" y="7" width="1" height="1" fill="rgb(147,153,170)"/><rect x="35" y="7" width="1" height="1" fill="rgb(146,152,169)"/><rect x="36" y="7" width="2" height="1" fill="rgb(146,151,168)"/><rect x="38" y="7" width="1" height="1" fill="rgb(209,214,226)"/><rect x="39" y="7" width="1" height="1" fill="rgb(210,215,227)"/><rect x="40" y="7" width="1" height="1" fill="rgb(210,215,227)"/><rect x="41" y="7" width="7" height="1" fill="rgb(209,214,226)"/><rect x="48" y="7" width="1" height="1" fill="rgb(208,213,225)"/><rect x="49" y="7" width="1" height="1" fill="rgb(209,214,226)"/><rect x="50" y="7" width="1" height="1" fill="rgb(100,106,127)"/><rect x="51" y="7" width="1" height="1" fill="rgb(102,108,129)"/><rect x="52" y="7" width="1" height="1" fill="rgb(100,106,127)"/><rect x="53" y="7" width="2" height="1" fill="rgb(209,214,226)"/><rect x="55" y="7" width="1" height="1" fill="rgb(208,213,225)"/><rect x="56" y="7" width="1" height="1" fill="rgb(209,214,226)"/><rect x="10" y="8" width="1" height="1" fill="rgb(199,204,217)"/><rect x="11" y="8" width="1" height="1" fill="rgb(209,214,226)"/><rect x="12" y="8" width="1" height="1" fill="rgb(209,214,226)"/><rect x="13" y="8" width="1" height="1" fill="rgb(210,215,227)"/><rect x="14" y="8" width="1" height="1" fill="rgb(100,106,127)"/><rect x="15" y="8" width="1" height="1" fill="rgb(101,107,128)"/><rect x="16" y="8" width="3" height="1" fill="rgb(145,151,168)"/><rect x="19" y="8" width="1" height="1" fill="rgb(146,151,168)"/><rect x="20" y="8" width="4" height="1" fill="rgb(145,151,168)"/><rect x="24" y="8" width="2" height="1" fill="rgb(209,214,226)"/><rect x="26" y="8" width="3" height="1" fill="rgb(100,106,127)"/><rect x="29" y="8" width="1" height="1" fill="rgb(101,107,128)"/><rect x="30" y="8" width="1" height="1" fill="rgb(147,152,169)"/><rect x="31" y="8" width="1" height="1" fill="rgb(145,151,168)"/><rect x="32" y="8" width="2" height="1" fill="rgb(145,151,168)"/><rect x="34" y="8" width="1" height="1" fill="rgb(147,153,170)"/><rect x="35" y="8" width="1" height="1" fill="rgb(144,150,167)"/><rect x="36" y="8" width="3" height="1" fill="rgb(145,151,168)"/><rect x="39" y="8" width="1" height="1" fill="rgb(147,152,170)"/><rect x="40" y="8" width="1" height="1" fill="rgb(209,214,226)"/><rect x="41" y="8" width="2" height="1" fill="rgb(209,214,226)"/><rect x="43" y="8" width="1" height="1" fill="rgb(210,215,227)"/><rect x="44" y="8" width="1" height="1" fill="rgb(209,214,226)"/><rect x="45" y="8" width="2" height="1" fill="rgb(209,214,226)"/><rect x="47" y="8" width="3" height="1" fill="rgb(100,106,127)"/><rect x="50" y="8" width="5" height="1" fill="rgb(145,151,168)"/><rect x="55" y="8" width="1" height="1" fill="rgb(145,150,168)"/><rect x="56" y="8" width="1" height="1" fill="rgb(209,214,226)"/><rect x="57" y="8" width="1" height="1" fill="rgb(209,214,226)"/><rect x="58" y="8" width="1" height="1" fill="rgb(209,214,226)"/><rect x="5" y="9" width="1" height="1" fill="rgb(98,104,126)"/><rect x="6" y="9" width="2" height="1" fill="rgb(99,105,126)"/><rect x="8" y="9" width="1" height="1" fill="rgb(100,106,127)"/><rect x="9" y="9" width="1" height="1" fill="rgb(209,214,226)"/><rect x="10" y="9" width="1" height="1" fill="rgb(201,206,219)"/><rect x="11" y="9" width="1" height="1" fill="rgb(210,215,227)"/><rect x="12" y="9" width="1" height="1" fill="rgb(209,214,226)"/><rect x="13" y="9" width="1" height="1" fill="rgb(210,215,227)"/><rect x="14" y="9" width="1" height="1" fill="rgb(102,108,129)"/><rect x="15" y="9" width="1" height="1" fill="rgb(101,107,128)"/><rect x="16" y="9" width="1" height="1" fill="rgb(144,149,167)"/><rect x="17" y="9" width="2" height="1" fill="rgb(145,151,168)"/><rect x="19" y="9" width="1" height="1" fill="rgb(144,150,167)"/><rect x="20" y="9" width="5" height="1" fill="rgb(145,151,168)"/><rect x="25" y="9" width="1" height="1" fill="rgb(210,215,227)"/><rect x="26" y="9" width="1" height="1" fill="rgb(209,214,226)"/><rect x="27" y="9" width="2" height="1" fill="rgb(100,106,127)"/><rect x="29" y="9" width="1" height="1" fill="rgb(103,109,130)"/><rect x="30" y="9" width="1" height="1" fill="rgb(149,154,171)"/><rect x="31" y="9" width="1" height="1" fill="rgb(147,152,169)"/><rect x="32" y="9" width="2" height="1" fill="rgb(145,151,168)"/><rect x="34" y="9" width="1" height="1" fill="rgb(147,153,170)"/><rect x="35" y="9" width="1" height="1" fill="rgb(144,150,167)"/><rect x="36" y="9" width="3" height="1" fill="rgb(145,151,168)"/><rect x="39" y="9" width="1" height="1" fill="rgb(147,152,169)"/><rect x="40" y="9" width="1" height="1" fill="rgb(144,150,167)"/><rect x="41" y="9" width="2" height="1" fill="rgb(145,151,168)"/><rect x="43" y="9" width="1" height="1" fill="rgb(206,211,223)"/><rect x="44" y="9" width="1" height="1" fill="rgb(210,215,227)"/><rect x="45" y="9" width="1" height="1" fill="rgb(103,109,130)"/><rect x="46" y="9" width="2" height="1" fill="rgb(100,106,127)"/><rect x="48" y="9" width="1" height="1" fill="rgb(144,150,167)"/><rect x="49" y="9" width="2" height="1" fill="rgb(145,151,168)"/><rect x="51" y="9" width="1" height="1" fill="rgb(144,150,167)"/><rect x="52" y="9" width="1" height="1" fill="rgb(145,151,168)"/><rect x="53" y="9" width="2" height="1" fill="rgb(145,151,168)"/><rect x="55" y="9" width="1" height="1" fill="rgb(208,213,225)"/><rect x="56" y="9" width="3" height="1" fill="rgb(209,214,226)"/><rect x="59" y="9" width="1" height="1" fill="rgb(216,221,233)"/><rect x="3" y="10" width="1" height="1" fill="rgb(100,106,127)"/><rect x="4" y="10" width="1" height="1" fill="rgb(94,100,122)"/><rect x="5" y="10" width="1" height="1" fill="rgb(94,100,122)"/><rect x="6" y="10" width="1" height="1" fill="rgb(145,151,168)"/><rect x="7" y="10" width="1" height="1" fill="rgb(138,144,162)"/><rect x="8" y="10" width="1" height="1" fill="rgb(209,214,226)"/><rect x="9" y="10" width="1" height="1" fill="rgb(208,213,225)"/><rect x="10" y="10" width="1" height="1" fill="rgb(199,204,217)"/><rect x="11" y="10" width="1" height="1" fill="rgb(209,214,226)"/><rect x="12" y="10" width="1" height="1" fill="rgb(209,214,226)"/><rect x="13" y="10" width="1" height="1" fill="rgb(209,214,226)"/><rect x="14" y="10" width="1" height="1" fill="rgb(207,212,224)"/><rect x="15" y="10" width="1" height="1" fill="rgb(93,99,121)"/><rect x="16" y="10" width="1" height="1" fill="rgb(99,105,126)"/><rect x="17" y="10" width="1" height="1" fill="rgb(151,156,173)"/><rect x="18" y="10" width="1" height="1" fill="rgb(150,155,172)"/><rect x="19" y="10" width="1" height="1" fill="rgb(146,151,168)"/><rect x="20" y="10" width="5" height="1" fill="rgb(145,151,168)"/><rect x="25" y="10" width="1" height="1" fill="rgb(217,222,234)"/><rect x="26" y="10" width="1" height="1" fill="rgb(210,215,227)"/><rect x="27" y="10" width="1" height="1" fill="rgb(90,96,118)"/><rect x="28" y="10" width="2" height="1" fill="rgb(100,106,127)"/><rect x="30" y="10" width="1" height="1" fill="rgb(155,161,178)"/><rect x="31" y="10" width="1" height="1" fill="rgb(144,149,167)"/><rect x="32" y="10" width="2" height="1" fill="rgb(145,151,168)"/><rect x="34" y="10" width="1" height="1" fill="rgb(147,153,170)"/><rect x="35" y="10" width="1" height="1" fill="rgb(144,150,167)"/><rect x="36" y="10" width="3" height="1" fill="rgb(145,151,168)"/><rect x="39" y="10" width="1" height="1" fill="rgb(148,153,170)"/><rect x="40" y="10" width="1" height="1" fill="rgb(145,150,168)"/><rect x="41" y="10" width="2" height="1" fill="rgb(145,151,168)"/><rect x="43" y="10" width="1" height="1" fill="rgb(222,227,238)"/><rect x="44" y="10" width="1" height="1" fill="rgb(100,106,127)"/><rect x="45" y="10" width="1" height="1" fill="rgb(99,105,126)"/><rect x="46" y="10" width="1" height="1" fill="rgb(94,100,122)"/><rect x="47" y="10" width="1" height="1" fill="rgb(145,151,168)"/><rect x="48" y="10" width="1" height="1" fill="rgb(143,149,166)"/><rect x="49" y="10" width="3" height="1" fill="rgb(145,151,168)"/><rect x="52" y="10" width="1" height="1" fill="rgb(139,144,162)"/><rect x="53" y="10" width="2" height="1" fill="rgb(209,214,226)"/><rect x="55" y="10" width="1" height="1" fill="rgb(208,213,225)"/><rect x="56" y="10" width="1" height="1" fill="rgb(209,214,226)"/><rect x="57" y="10" width="3" height="1" fill="rgb(209,214,226)"/><rect x="60" y="10" width="1" height="1" fill="rgb(210,215,227)"/><rect x="0" y="11" width="1" height="1" fill="rgb(99,105,126)"/><rect x="1" y="11" width="1" height="1" fill="rgb(100,106,127)"/><rect x="2" y="11" width="1" height="1" fill="rgb(100,106,127)"/><rect x="3" y="11" width="1" height="1" fill="rgb(143,149,166)"/><rect x="4" y="11" width="1" height="1" fill="rgb(145,151,168)"/><rect x="5" y="11" width="1" height="1" fill="rgb(145,150,168)"/><rect x="6" y="11" width="1" height="1" fill="rgb(145,151,168)"/><rect x="7" y="11" width="1" height="1" fill="rgb(147,153,170)"/><rect x="8" y="11" width="2" height="1" fill="rgb(209,214,226)"/><rect x="10" y="11" width="1" height="1" fill="rgb(201,206,219)"/><rect x="11" y="11" width="1" height="1" fill="rgb(209,214,226)"/><rect x="12" y="11" width="1" height="1" fill="rgb(209,214,226)"/><rect x="13" y="11" width="1" height="1" fill="rgb(208,213,225)"/><rect x="14" y="11" width="1" height="1" fill="rgb(209,214,226)"/><rect x="15" y="11" width="1" height="1" fill="rgb(211,216,228)"/><rect x="16" y="11" width="1" height="1" fill="rgb(204,209,222)"/><rect x="17" y="11" width="1" height="1" fill="rgb(208,213,225)"/><rect x="18" y="11" width="1" height="1" fill="rgb(99,105,126)"/><rect x="19" y="11" width="1" height="1" fill="rgb(101,107,128)"/><rect x="20" y="11" width="1" height="1" fill="rgb(101,107,128)"/><rect x="21" y="11" width="1" height="1" fill="rgb(147,152,170)"/><rect x="22" y="11" width="4" height="1" fill="rgb(145,151,168)"/><rect x="26" y="11" width="1" height="1" fill="rgb(209,214,226)"/><rect x="27" y="11" width="1" height="1" fill="rgb(148,153,170)"/><rect x="28" y="11" width="1" height="1" fill="rgb(144,149,167)"/><rect x="29" y="11" width="1" height="1" fill="rgb(100,106,127)"/><rect x="30" y="11" width="1" height="1" fill="rgb(99,105,126)"/><rect x="31" y="11" width="1" height="1" fill="rgb(101,107,128)"/><rect x="32" y="11" width="2" height="1" fill="rgb(145,151,168)"/><rect x="34" y="11" width="1" height="1" fill="rgb(145,151,168)"/><rect x="35" y="11" width="1" height="1" fill="rgb(144,150,167)"/><rect x="36" y="11" width="3" height="1" fill="rgb(145,151,168)"/><rect x="39" y="11" width="1" height="1" fill="rgb(147,152,169)"/><rect x="40" y="11" width="1" height="1" fill="rgb(144,150,167)"/><rect x="41" y="11" width="1" height="1" fill="rgb(145,151,168)"/><rect x="42" y="11" width="1" height="1" fill="rgb(100,106,127)"/><rect x="43" y="11" width="1" height="1" fill="rgb(100,106,127)"/><rect x="44" y="11" width="1" height="1" fill="rgb(100,106,127)"/><rect x="45" y="11" width="1" height="1" fill="rgb(146,151,169)"/><rect x="46" y="11" width="6" height="1" fill="rgb(145,151,168)"/><rect x="52" y="11" width="4" height="1" fill="rgb(209,214,226)"/><rect x="56" y="11" width="1" height="1" fill="rgb(210,215,227)"/><rect x="57" y="11" width="3" height="1" fill="rgb(209,214,226)"/><rect x="60" y="11" width="1" height="1" fill="rgb(208,213,225)"/><rect x="61" y="11" width="2" height="1" fill="rgb(209,214,226)"/><rect x="63" y="11" width="1" height="1" fill="rgb(208,213,225)"/><rect x="0" y="12" width="1" height="1" fill="rgb(102,108,129)"/><rect x="1" y="12" width="1" height="1" fill="rgb(99,105,126)"/><rect x="2" y="12" width="1" height="1" fill="rgb(147,152,170)"/><rect x="3" y="12" width="2" height="1" fill="rgb(146,152,169)"/><rect x="5" y="12" width="1" height="1" fill="rgb(144,150,167)"/><rect x="6" y="12" width="2" height="1" fill="rgb(146,152,169)"/><rect x="8" y="12" width="2" height="1" fill="rgb(145,150,168)"/><rect x="10" y="12" width="1" height="1" fill="rgb(139,144,162)"/><rect x="11" y="12" width="1" height="1" fill="rgb(144,149,167)"/><rect x="12" y="12" width="1" height="1" fill="rgb(145,150,168)"/><rect x="13" y="12" width="1" height="1" fill="rgb(145,151,168)"/><rect x="14" y="12" width="1" height="1" fill="rgb(208,213,225)"/><rect x="15" y="12" width="1" height="1" fill="rgb(212,217,229)"/><rect x="16" y="12" width="1" height="1" fill="rgb(210,215,227)"/><rect x="17" y="12" width="1" height="1" fill="rgb(209,214,226)"/><rect x="18" y="12" width="1" height="1" fill="rgb(210,215,227)"/><rect x="19" y="12" width="1" height="1" fill="rgb(209,214,226)"/><rect x="20" y="12" width="1" height="1" fill="rgb(102,108,129)"/><rect x="21" y="12" width="1" height="1" fill="rgb(102,108,129)"/><rect x="22" y="12" width="1" height="1" fill="rgb(100,106,127)"/><rect x="23" y="12" width="1" height="1" fill="rgb(100,106,128)"/><rect x="24" y="12" width="1" height="1" fill="rgb(100,106,127)"/><rect x="25" y="12" width="1" height="1" fill="rgb(144,150,167)"/><rect x="26" y="12" width="1" height="1" fill="rgb(145,150,168)"/><rect x="27" y="12" width="1" height="1" fill="rgb(146,152,169)"/><rect x="28" y="12" width="1" height="1" fill="rgb(147,153,170)"/><rect x="29" y="12" width="1" height="1" fill="rgb(142,148,166)"/><rect x="30" y="12" width="1" height="1" fill="rgb(100,106,127)"/><rect x="31" y="12" width="1" height="1" fill="rgb(99,105,126)"/><rect x="32" y="12" width="1" height="1" fill="rgb(100,106,128)"/><rect x="33" y="12" width="1" height="1" fill="rgb(146,152,169)"/><rect x="34" y="12" width="1" height="1" fill="rgb(146,151,168)"/><rect x="35" y="12" width="1" height="1" fill="rgb(145,151,168)"/><rect x="36" y="12" width="3" height="1" fill="rgb(146,152,169)"/><rect x="39" y="12" width="1" height="1" fill="rgb(147,152,169)"/><rect x="40" y="12" width="1" height="1" fill="rgb(145,151,168)"/><rect x="41" y="12" width="1" height="1" fill="rgb(101,107,128)"/><rect x="42" y="12" width="1" height="1" fill="rgb(100,106,127)"/><rect x="43" y="12" width="1" height="1" fill="rgb(101,107,128)"/><rect x="44" y="12" width="1" height="1" fill="rgb(100,106,127)"/><rect x="45" y="12" width="3" height="1" fill="rgb(146,152,169)"/><rect x="48" y="12" width="1" height="1" fill="rgb(148,153,170)"/><rect x="49" y="12" width="2" height="1" fill="rgb(146,152,169)"/><rect x="51" y="12" width="1" height="1" fill="rgb(145,151,168)"/><rect x="52" y="12" width="1" height="1" fill="rgb(209,214,226)"/><rect x="53" y="12" width="1" height="1" fill="rgb(210,215,227)"/><rect x="54" y="12" width="1" height="1" fill="rgb(209,214,226)"/><rect x="55" y="12" width="1" height="1" fill="rgb(210,215,227)"/><rect x="56" y="12" width="1" height="1" fill="rgb(209,214,226)"/><rect x="57" y="12" width="1" height="1" fill="rgb(208,213,225)"/><rect x="58" y="12" width="1" height="1" fill="rgb(209,214,226)"/><rect x="59" y="12" width="1" height="1" fill="rgb(210,215,227)"/><rect x="60" y="12" width="1" height="1" fill="rgb(210,215,227)"/><rect x="61" y="12" width="1" height="1" fill="rgb(209,214,226)"/><rect x="62" y="12" width="1" height="1" fill="rgb(210,215,227)"/><rect x="63" y="12" width="1" height="1" fill="rgb(209,214,226)"/><rect x="64" y="12" width="1" height="1" fill="rgb(214,219,231)"/><rect x="0" y="13" width="1" height="1" fill="rgb(101,107,128)"/><rect x="1" y="13" width="1" height="1" fill="rgb(100,106,127)"/><rect x="2" y="13" width="1" height="1" fill="rgb(144,150,167)"/><rect x="3" y="13" width="2" height="1" fill="rgb(145,151,168)"/><rect x="5" y="13" width="1" height="1" fill="rgb(145,150,168)"/><rect x="6" y="13" width="4" height="1" fill="rgb(145,151,168)"/><rect x="10" y="13" width="1" height="1" fill="rgb(140,146,164)"/><rect x="11" y="13" width="1" height="1" fill="rgb(147,152,170)"/><rect x="12" y="13" width="1" height="1" fill="rgb(145,151,168)"/><rect x="13" y="13" width="1" height="1" fill="rgb(146,152,169)"/><rect x="14" y="13" width="1" height="1" fill="rgb(145,150,168)"/><rect x="15" y="13" width="1" height="1" fill="rgb(147,152,169)"/><rect x="16" y="13" width="1" height="1" fill="rgb(145,151,168)"/><rect x="17" y="13" width="2" height="1" fill="rgb(209,214,226)"/><rect x="19" y="13" width="1" height="1" fill="rgb(209,214,226)"/><rect x="20" y="13" width="2" height="1" fill="rgb(209,214,226)"/><rect x="22" y="13" width="1" height="1" fill="rgb(145,151,168)"/><rect x="23" y="13" width="3" height="1" fill="rgb(209,214,226)"/><rect x="26" y="13" width="3" height="1" fill="rgb(145,151,168)"/><rect x="29" y="13" width="1" height="1" fill="rgb(144,149,167)"/><rect x="30" y="13" width="2" height="1" fill="rgb(100,106,127)"/><rect x="32" y="13" width="2" height="1" fill="rgb(100,106,127)"/><rect x="34" y="13" width="1" height="1" fill="rgb(102,107,128)"/><rect x="35" y="13" width="1" height="1" fill="rgb(145,150,168)"/><rect x="36" y="13" width="3" height="1" fill="rgb(145,151,168)"/><rect x="39" y="13" width="1" height="1" fill="rgb(148,153,170)"/><rect x="40" y="13" width="1" height="1" fill="rgb(102,107,128)"/><rect x="41" y="13" width="2" height="1" fill="rgb(100,106,127)"/><rect x="43" y="13" width="1" height="1" fill="rgb(100,106,127)"/><rect x="44" y="13" width="1" height="1" fill="rgb(146,151,168)"/><rect x="45" y="13" width="3" height="1" fill="rgb(145,151,168)"/><rect x="48" y="13" width="1" height="1" fill="rgb(143,149,166)"/><rect x="49" y="13" width="4" height="1" fill="rgb(145,151,168)"/><rect x="53" y="13" width="2" height="1" fill="rgb(209,214,226)"/><rect x="55" y="13" width="1" height="1" fill="rgb(208,213,225)"/><rect x="56" y="13" width="1" height="1" fill="rgb(209,214,226)"/><rect x="57" y="13" width="3" height="1" fill="rgb(209,214,226)"/><rect x="60" y="13" width="1" height="1" fill="rgb(210,215,227)"/><rect x="61" y="13" width="3" height="1" fill="rgb(209,214,226)"/><rect x="64" y="13" width="1" height="1" fill="rgb(208,213,225)"/><rect x="0" y="14" width="1" height="1" fill="rgb(101,107,128)"/><rect x="1" y="14" width="1" height="1" fill="rgb(100,106,127)"/><rect x="2" y="14" width="1" height="1" fill="rgb(100,106,127)"/><rect x="3" y="14" width="2" height="1" fill="rgb(145,151,168)"/><rect x="5" y="14" width="1" height="1" fill="rgb(145,150,168)"/><rect x="6" y="14" width="4" height="1" fill="rgb(145,151,168)"/><rect x="10" y="14" width="1" height="1" fill="rgb(140,146,164)"/><rect x="11" y="14" width="1" height="1" fill="rgb(147,152,170)"/><rect x="12" y="14" width="1" height="1" fill="rgb(145,151,168)"/><rect x="13" y="14" width="1" height="1" fill="rgb(144,150,167)"/><rect x="14" y="14" width="1" height="1" fill="rgb(145,150,168)"/><rect x="15" y="14" width="1" height="1" fill="rgb(147,152,169)"/><rect x="16" y="14" width="3" height="1" fill="rgb(145,151,168)"/><rect x="19" y="14" width="1" height="1" fill="rgb(146,151,168)"/><rect x="20" y="14" width="3" height="1" fill="rgb(145,151,168)"/><rect x="23" y="14" width="2" height="1" fill="rgb(209,214,226)"/><rect x="25" y="14" width="1" height="1" fill="rgb(143,149,166)"/><rect x="26" y="14" width="4" height="1" fill="rgb(145,151,168)"/><rect x="30" y="14" width="2" height="1" fill="rgb(99,105,126)"/><rect x="32" y="14" width="1" height="1" fill="rgb(100,106,127)"/><rect x="33" y="14" width="1" height="1" fill="rgb(145,151,168)"/><rect x="34" y="14" width="1" height="1" fill="rgb(148,153,170)"/><rect x="35" y="14" width="1" height="1" fill="rgb(102,108,129)"/><rect x="36" y="14" width="1" height="1" fill="rgb(100,106,127)"/><rect x="37" y="14" width="2" height="1" fill="rgb(145,151,168)"/><rect x="39" y="14" width="1" height="1" fill="rgb(146,151,168)"/><rect x="40" y="14" width="1" height="1" fill="rgb(102,107,128)"/><rect x="41" y="14" width="2" height="1" fill="rgb(100,106,127)"/><rect x="43" y="14" width="1" height="1" fill="rgb(101,107,128)"/><rect x="44" y="14" width="1" height="1" fill="rgb(100,106,127)"/><rect x="45" y="14" width="3" height="1" fill="rgb(145,151,168)"/><rect x="48" y="14" width="1" height="1" fill="rgb(144,150,167)"/><rect x="49" y="14" width="5" height="1" fill="rgb(145,151,168)"/><rect x="54" y="14" width="1" height="1" fill="rgb(138,144,162)"/><rect x="55" y="14" width="5" height="1" fill="rgb(209,214,226)"/><rect x="60" y="14" width="1" height="1" fill="rgb(210,215,227)"/><rect x="61" y="14" width="3" height="1" fill="rgb(209,214,226)"/><rect x="64" y="14" width="1" height="1" fill="rgb(208,213,225)"/><rect x="65" y="14" width="1" height="1" fill="rgb(208,213,225)"/><rect x="2" y="15" width="2" height="1" fill="rgb(101,107,128)"/><rect x="4" y="15" width="1" height="1" fill="rgb(147,152,170)"/><rect x="5" y="15" width="1" height="1" fill="rgb(145,150,168)"/><rect x="6" y="15" width="4" height="1" fill="rgb(145,151,168)"/><rect x="10" y="15" width="1" height="1" fill="rgb(140,146,164)"/><rect x="11" y="15" width="1" height="1" fill="rgb(145,150,168)"/><rect x="12" y="15" width="2" height="1" fill="rgb(145,151,168)"/><rect x="14" y="15" width="1" height="1" fill="rgb(145,150,168)"/><rect x="15" y="15" width="1" height="1" fill="rgb(147,152,169)"/><rect x="16" y="15" width="3" height="1" fill="rgb(145,151,168)"/><rect x="19" y="15" width="1" height="1" fill="rgb(144,150,167)"/><rect x="20" y="15" width="1" height="1" fill="rgb(145,151,168)"/><rect x="21" y="15" width="1" height="1" fill="rgb(142,148,166)"/><rect x="22" y="15" width="1" height="1" fill="rgb(209,214,226)"/><rect x="23" y="15" width="2" height="1" fill="rgb(209,214,226)"/><rect x="25" y="15" width="5" height="1" fill="rgb(145,151,168)"/><rect x="30" y="15" width="1" height="1" fill="rgb(147,152,169)"/><rect x="31" y="15" width="1" height="1" fill="rgb(97,103,125)"/><rect x="32" y="15" width="2" height="1" fill="rgb(100,106,127)"/><rect x="34" y="15" width="1" height="1" fill="rgb(101,106,128)"/><rect x="35" y="15" width="4" height="1" fill="rgb(145,151,168)"/><rect x="39" y="15" width="1" height="1" fill="rgb(147,152,169)"/><rect x="40" y="15" width="1" height="1" fill="rgb(96,102,123)"/><rect x="41" y="15" width="2" height="1" fill="rgb(100,106,127)"/><rect x="43" y="15" width="1" height="1" fill="rgb(100,106,127)"/><rect x="44" y="15" width="1" height="1" fill="rgb(145,150,168)"/><rect x="45" y="15" width="3" height="1" fill="rgb(145,151,168)"/><rect x="48" y="15" width="1" height="1" fill="rgb(144,150,167)"/><rect x="49" y="15" width="6" height="1" fill="rgb(145,151,168)"/><rect x="55" y="15" width="1" height="1" fill="rgb(144,150,167)"/><rect x="56" y="15" width="1" height="1" fill="rgb(146,151,169)"/><rect x="57" y="15" width="2" height="1" fill="rgb(209,214,226)"/><rect x="59" y="15" width="1" height="1" fill="rgb(209,214,226)"/><rect x="60" y="15" width="1" height="1" fill="rgb(209,214,226)"/><rect x="61" y="15" width="3" height="1" fill="rgb(209,214,226)"/><rect x="64" y="15" width="1" height="1" fill="rgb(210,215,227)"/><rect x="65" y="15" width="1" height="1" fill="rgb(210,215,227)"/><rect x="5" y="16" width="1" height="1" fill="rgb(98,104,125)"/><rect x="6" y="16" width="2" height="1" fill="rgb(100,106,127)"/><rect x="8" y="16" width="1" height="1" fill="rgb(145,150,168)"/><rect x="9" y="16" width="1" height="1" fill="rgb(146,151,168)"/><rect x="10" y="16" width="1" height="1" fill="rgb(139,144,162)"/><rect x="11" y="16" width="1" height="1" fill="rgb(146,152,169)"/><rect x="12" y="16" width="2" height="1" fill="rgb(146,151,168)"/><rect x="14" y="16" width="1" height="1" fill="rgb(144,150,167)"/><rect x="15" y="16" width="1" height="1" fill="rgb(146,151,168)"/><rect x="16" y="16" width="1" height="1" fill="rgb(145,150,168)"/><rect x="17" y="16" width="1" height="1" fill="rgb(146,151,168)"/><rect x="18" y="16" width="1" height="1" fill="rgb(145,151,168)"/><rect x="19" y="16" width="1" height="1" fill="rgb(146,151,168)"/><rect x="20" y="16" width="3" height="1" fill="rgb(209,214,226)"/><rect x="23" y="16" width="1" height="1" fill="rgb(146,151,168)"/><rect x="24" y="16" width="1" height="1" fill="rgb(146,151,168)"/><rect x="25" y="16" width="1" height="1" fill="rgb(145,150,168)"/><rect x="26" y="16" width="4" height="1" fill="rgb(146,151,168)"/><rect x="30" y="16" width="1" height="1" fill="rgb(148,153,170)"/><rect x="31" y="16" width="1" height="1" fill="rgb(147,152,169)"/><rect x="32" y="16" width="1" height="1" fill="rgb(146,152,169)"/><rect x="33" y="16" width="1" height="1" fill="rgb(101,107,128)"/><rect x="34" y="16" width="1" height="1" fill="rgb(102,107,128)"/><rect x="35" y="16" width="1" height="1" fill="rgb(101,107,128)"/><rect x="36" y="16" width="3" height="1" fill="rgb(100,106,127)"/><rect x="39" y="16" width="1" height="1" fill="rgb(101,107,128)"/><rect x="40" y="16" width="1" height="1" fill="rgb(145,150,168)"/><rect x="41" y="16" width="1" height="1" fill="rgb(146,152,169)"/><rect x="42" y="16" width="1" height="1" fill="rgb(100,106,127)"/><rect x="43" y="16" width="1" height="1" fill="rgb(101,106,128)"/><rect x="44" y="16" width="1" height="1" fill="rgb(101,107,128)"/><rect x="45" y="16" width="1" height="1" fill="rgb(146,151,168)"/><rect x="46" y="16" width="2" height="1" fill="rgb(146,151,168)"/><rect x="48" y="16" width="1" height="1" fill="rgb(145,151,168)"/><rect x="49" y="16" width="1" height="1" fill="rgb(145,150,168)"/><rect x="50" y="16" width="1" height="1" fill="rgb(146,151,168)"/><rect x="51" y="16" width="1" height="1" fill="rgb(146,152,169)"/><rect x="52" y="16" width="3" height="1" fill="rgb(146,151,168)"/><rect x="55" y="16" width="1" height="1" fill="rgb(144,150,167)"/><rect x="56" y="16" width="1" height="1" fill="rgb(146,151,169)"/><rect x="57" y="16" width="1" height="1" fill="rgb(146,151,168)"/><rect x="58" y="16" width="1" height="1" fill="rgb(146,151,168)"/><rect x="59" y="16" width="4" height="1" fill="rgb(145,151,168)"/><rect x="63" y="16" width="1" height="1" fill="rgb(146,152,169)"/><rect x="64" y="16" width="1" height="1" fill="rgb(209,214,226)"/><rect x="65" y="16" width="1" height="1" fill="rgb(208,213,225)"/><rect x="66" y="16" width="1" height="1" fill="rgb(209,214,226)"/><rect x="8" y="17" width="2" height="1" fill="rgb(100,106,127)"/><rect x="10" y="17" width="1" height="1" fill="rgb(97,102,124)"/><rect x="11" y="17" width="1" height="1" fill="rgb(102,108,129)"/><rect x="12" y="17" width="2" height="1" fill="rgb(100,106,127)"/><rect x="14" y="17" width="1" height="1" fill="rgb(100,106,127)"/><rect x="15" y="17" width="1" height="1" fill="rgb(101,107,128)"/><rect x="16" y="17" width="14" height="1" fill="rgb(100,106,127)"/><rect x="30" y="17" width="2" height="1" fill="rgb(100,106,127)"/><rect x="32" y="17" width="2" height="1" fill="rgb(100,106,127)"/><rect x="34" y="17" width="1" height="1" fill="rgb(102,107,128)"/><rect x="35" y="17" width="1" height="1" fill="rgb(101,107,128)"/><rect x="36" y="17" width="3" height="1" fill="rgb(100,106,127)"/><rect x="39" y="17" width="1" height="1" fill="rgb(101,107,128)"/><rect x="40" y="17" width="1" height="1" fill="rgb(102,108,129)"/><rect x="41" y="17" width="2" height="1" fill="rgb(100,106,127)"/><rect x="43" y="17" width="1" height="1" fill="rgb(101,107,128)"/><rect x="44" y="17" width="1" height="1" fill="rgb(100,106,127)"/><rect x="45" y="17" width="6" height="1" fill="rgb(100,106,127)"/><rect x="51" y="17" width="1" height="1" fill="rgb(101,107,128)"/><rect x="52" y="17" width="3" height="1" fill="rgb(100,106,127)"/><rect x="55" y="17" width="1" height="1" fill="rgb(99,105,126)"/><rect x="56" y="17" width="1" height="1" fill="rgb(100,106,127)"/><rect x="57" y="17" width="3" height="1" fill="rgb(100,106,127)"/><rect x="60" y="17" width="1" height="1" fill="rgb(101,107,128)"/><rect x="61" y="17" width="3" height="1" fill="rgb(100,106,127)"/><rect x="64" y="17" width="1" height="1" fill="rgb(99,105,126)"/><rect x="65" y="17" width="1" height="1" fill="rgb(101,107,128)"/></svg>
