<svg xmlns="http://www.w3.org/2000/svg" width="48" height="48" fill="none" viewBox="0 0 48 48">
  <path fill="#6A1B9A" d="M44 25c0 5.694-2.381 10.831-6.2 14.481l-.006.006A19.972 19.972 0 0 1 24 45C12.956 45 4 36.044 4 25a19.913 19.913 0 0 1 5.5-13.775c.006-.013.013-.019.019-.025C13.169 7.381 18.306 5 24 5c11.044 0 20 8.956 20 20Z"/>
  <path fill="#7B1FA2" d="M38.375 38.862c-.187.213-.381.419-.575.619l-.006.006A19.972 19.972 0 0 1 24 45C12.956 45 4 36.044 4 25a19.913 19.913 0 0 1 5.5-13.775c.006-.013.013-.019.019-.025.2-.194.406-.387.619-.575l28.237 28.237Z"/>
  <path fill="#fff" d="M8.626 31.281a.841.841 0 0 1-.625-.262.862.862 0 0 1-.256-.625.877.877 0 0 1 .256-.625.837.837 0 0 1 .625-.269.854.854 0 0 1 .625.269c.169.164.263.39.262.625a.858.858 0 0 1-.262.625.862.862 0 0 1-.625.262Zm12.418-.156h-1.638l-5.856-9.087a3.82 3.82 0 0 1-.363-.712h-.05c.056.519.077 1.041.062 1.562v8.237h-1.331V19.731h1.731l5.7 8.925c.237.371.392.625.462.763h.031a12.017 12.017 0 0 1-.081-1.675v-8.012h1.331v11.393h.002Zm9.013 0h-6.056V19.731h5.775v1.206h-4.412v3.788h4.113v1.2h-4.113v3.95h4.7l-.007 1.25Zm8.944-10.187h-3.312v10.188h-1.331V20.938h-3.275v-1.206h7.919l-.001 1.206Z"/>
</svg>
