<svg xmlns="http://www.w3.org/2000/svg" width="102" height="84" fill="none" viewBox="0 0 102 84">
  <path stroke="#1E1F26" stroke-linecap="round" stroke-linejoin="round" stroke-width="8" d="M86.25 4h-70.5C9.26 4 4 8.253 4 13.5v57c0 .532.054 1.055.158 1.563C5.08 76.566 9.92 80 15.75 80h70.5C92.74 80 98 75.747 98 70.5v-57C98 8.253 92.74 4 86.25 4Z"/>
  <path stroke="#1E1F26" stroke-linecap="round" stroke-linejoin="round" stroke-width="8" d="M39.25 27.75a9.5 9.5 0 0 1-9.5 9.5 9.5 9.5 0 1 1 9.5-9.5ZM4 72l22.484-18.196c4.002-2.833 9.855-3.143 14.28-.756l2.996 1.616c4.264 2.3 9.879 2.103 13.881-.487l15.584-10.09c3.973-2.572 9.506-2.773 13.728-.569.468.244.884.547 1.278.866L98 52.289"/>
</svg>
